<?xml version="1.0" encoding="UTF-8"?>
<svg id="Layer_1" data-name="Layer 1" xmlns="http://www.w3.org/2000/svg" viewBox="0 0 421.59 461.39">
  <defs>
    <style>
      .cls-1, .cls-2 {
        fill: #231f20;
      }

      .cls-3 {
        fill: #fff;
        stroke: #fff;
      }

      .cls-3, .cls-2 {
        stroke-miterlimit: 10;
      }

      .cls-2 {
        stroke: #231f20;
      }

      .cls-4 {
        fill: #39b54a;
      }

      .cls-5 {
        fill: #414042;
      }
    </style>
  </defs>
  <rect class="cls-2" x="8.88" y="53.11" width="411.98" height="407.78"/>
  <rect class="cls-3" x=".5" y="44.73" width="411.98" height="407.78"/>
  <g>
    <path class="cls-1" d="M381.13,32.44c-39,29-71,65-102,105-27,35-43,72-62,111-14,27-29,52-48,77-2,2-4,3-7,4-43,6-84,5-127,1-4,0-8-1-11,1,54,36,113,65,173,92,3,1,6-3,8-5,16-18,28-37,41-58,17-28,29-56,42-85,1-2,0-3,1-5,2-4,4-9,6-13,20-57,41-111,76-164,19-27,35-51,48-80l-1-1c-12,7-24,15-37,20h0Z"/>
    <path class="cls-1" d="M379.87,30.29c-12.82,9.54-25.02,19.88-36.61,30.87-11.56,10.95-22.52,22.52-33.04,34.48-10.81,12.29-21.14,24.99-31.19,37.9-10.22,13.12-19.41,26.94-27.68,41.38-8.08,14.11-15.34,28.66-22.42,43.29-3.58,7.4-7.11,14.82-10.68,22.22s-7.57,15.03-11.64,22.41c-8.02,14.54-16.65,28.75-26.02,42.47-2.39,3.5-4.83,6.96-7.32,10.39-1.28,1.77-2.58,3.53-3.88,5.28-1.09,1.46-2.07,3.01-3.6,4.04-1.28.87-2.81,1.63-4.32,2.01-2.15.54-4.54.61-6.73.88-4.48.55-8.97,1.02-13.47,1.43-17.78,1.6-35.65,2.1-53.5,1.75-8.89-.18-17.78-.56-26.65-1.11-4.48-.28-8.96-.6-13.43-.95s-8.96-.96-13.44-1.1c-3.87-.12-7.89-.81-11.37,1.36-1.65,1.03-1.57,3.27,0,4.32,18.56,12.37,37.67,23.89,57.14,34.76,19.59,10.93,39.54,21.2,59.7,31.03,10.12,4.93,20.3,9.76,30.51,14.5,5.11,2.37,10.24,4.72,15.37,7.06,2.57,1.17,5.13,2.33,7.7,3.49,1.2.54,2.47,1.31,3.77,1.55s2.52,0,3.71-.52c2-.89,3.57-2.55,5.05-4.12,1.69-1.81,3.32-3.68,4.93-5.57,3.49-4.12,6.84-8.36,10.08-12.67,6.38-8.5,12.29-17.33,18.01-26.29,6.04-9.47,11.97-19.01,17.42-28.83s10.51-19.91,15.34-30.08c4.79-10.09,9.36-20.28,13.91-30.47,1.15-2.57,2.29-5.14,3.44-7.71.59-1.33,1.29-2.65,1.79-4.02.41-1.13.26-2.25.42-3.4.13-.97.83-1.97,1.24-2.86.56-1.2,1.1-2.41,1.64-3.62,1.06-2.39,2.19-4.74,3.27-7.11s1.88-5.23,2.8-7.81,1.8-5.07,2.71-7.61c1.81-5.05,3.64-10.08,5.51-15.11,3.71-10,7.54-19.96,11.55-29.85,8.03-19.8,16.84-39.31,26.74-58.25,5.09-9.74,10.48-19.33,16.17-28.73,2.91-4.81,5.9-9.57,8.97-14.27s6.37-9.23,9.55-13.84c12.06-17.49,23.58-35.39,33.22-54.35,2.38-4.67,4.64-9.4,6.78-14.19.46-1.03.45-2.19-.39-3.03l-1-1c-.78-.78-2.07-.95-3.03-.39-11.9,6.95-23.49,14.75-36.4,19.75-1.26.49-2.13,1.68-1.75,3.08.33,1.2,1.81,2.24,3.08,1.75,13.35-5.17,25.3-13.07,37.6-20.25l-3.03-.39,1,1-.39-3.03c-8.65,19.25-19.28,37.47-30.9,55.07-6.03,9.13-12.55,17.95-18.53,27.11-6.06,9.27-11.8,18.75-17.23,28.4-10.48,18.61-19.81,37.85-28.26,57.46s-16.02,39.41-23.24,59.42c-1.8,5-3.58,10-5.34,15.01-.85,2.41-2,4.68-3.04,7.01s-2.13,4.79-3.27,7.16c-.58,1.21-.96,2.29-1.02,3.64-.05,1.2-.24,1.89-.74,3.02-1.12,2.5-2.24,5-3.35,7.51-2.25,5.04-4.5,10.08-6.78,15.11-9.24,20.41-18.97,40.63-30.54,59.84-10.94,18.18-22.5,36.25-36.08,52.59-1.72,2.08-3.45,4.18-5.29,6.15-1.26,1.35-2.52,2.95-4.1,3.95-.55.34-.97.55-1.3.47-1.36-.33-2.79-1.26-4.07-1.84-2.5-1.13-4.99-2.26-7.49-3.4-10.18-4.64-20.33-9.35-30.44-14.16-20.14-9.59-40.1-19.56-59.74-30.14s-38.59-21.55-57.24-33.41c-4.57-2.9-9.1-5.86-13.6-8.86v4.32c1.5-.94,3.19-.95,4.92-.89,2.01.08,4.05.16,6.06.34,4.5.41,9.01.8,13.52,1.14,8.99.69,17.99,1.23,27,1.57,17.72.68,35.48.58,53.19-.57,9.07-.59,18.11-1.45,27.12-2.6,2.16-.28,4.53-.34,6.58-1.09,1.68-.61,3.35-1.33,4.81-2.37,3.36-2.41,5.62-6.29,8.03-9.59,9.86-13.51,18.96-27.56,27.39-42,4.22-7.23,8.28-14.57,12.2-21.97s7.44-14.88,11.04-22.38c7.05-14.7,14.1-29.42,21.8-43.8,7.72-14.42,16.13-28.49,25.65-41.81,9.57-13.4,20.1-26.2,30.73-38.76,10.38-12.26,21.18-24.19,32.54-35.55,11.19-11.18,22.94-21.82,35.32-31.67,3-2.38,6.03-4.72,9.1-7,1.08-.81,1.63-2.16.9-3.42-.62-1.07-2.33-1.71-3.42-.9Z"/>
  </g>
  <g>
    <path class="cls-4" d="M376.13,22.44c-25,19-47,40-68,64-1,1-3,2-4,3-18,22-34,42-49,66-1,2-1,3-2,5-15,23-25,45-36,69-12,22-23,42-37,64-5,8-10,14-16,22-2,2-4,3-7,4-43,6-85,5-127,1h-11c14,13,30,20,46,29,41,24,82,44,124,63,2,1,4,1,6,0,14-10,20-24,30-37,4-6,7-11,11-17,39-60,57-122,82-185,5-12,12-24,18-36,4-9,9-19,14-28l3-3c9-17,20-31,31-48,2-3,2-5,4-8l3-3c6-10,11-19,16-29,3-5,6-10,7-16-13,6-24,15-38,20h0Z"/>
    <path class="cls-5" d="M374.87,20.29c-12.89,9.8-25.24,20.28-36.98,31.44-5.85,5.56-11.56,11.28-17.12,17.13-2.86,3.01-5.69,6.07-8.48,9.15-2.52,2.78-4.8,5.98-7.91,8.1-1.69,1.15-2.83,2.55-4.12,4.13s-2.66,3.26-3.98,4.89c-2.61,3.21-5.2,6.43-7.78,9.66-5.1,6.4-10.12,12.86-14.99,19.42s-9.59,13.21-14.11,20c-1.15,1.73-2.3,3.48-3.42,5.23s-2.46,3.48-3.3,5.36c-.71,1.57-1.07,3.33-1.98,4.8-1.13,1.84-2.33,3.63-3.47,5.46-8.7,14.02-16.21,28.71-23.25,43.62-3.52,7.47-6.66,15.19-10.62,22.44s-8.06,14.72-12.17,22.04c-4.1,7.29-8.27,14.54-12.56,21.72-4.41,7.37-8.82,14.8-13.68,21.9-2.24,3.27-4.61,6.43-7.02,9.57-1.26,1.64-2.52,3.28-3.77,4.92-1.08,1.42-2.03,2.86-3.54,3.85-1.31.86-2.88,1.64-4.42,1.95-2.12.43-4.34.58-6.49.84-4.42.54-8.85,1-13.28,1.4-17.58,1.59-35.25,2.1-52.89,1.79-17.44-.31-34.85-1.42-52.21-3.05-4.02-.38-8.17-.11-12.21-.11-2.1,0-3.38,2.77-1.77,4.27,7.86,7.27,16.83,13.11,26.15,18.32,4.56,2.55,9.19,4.98,13.78,7.46,4.93,2.66,9.75,5.48,14.61,8.26,19.86,11.38,40.11,22.07,60.62,32.23,10.2,5.06,20.47,9.99,30.78,14.82,5.15,2.41,10.32,4.8,15.5,7.17,2.59,1.19,5.18,2.37,7.78,3.54,2.75,1.25,5.34,2.24,8.37,1.21,2.42-.83,4.54-2.89,6.43-4.56s3.56-3.33,5.19-5.14c3.23-3.58,6.09-7.48,8.8-11.46s5.18-7.87,7.85-11.74c1.41-2.04,2.95-3.99,4.35-6.03,1.57-2.28,3.03-4.64,4.51-6.97,6.06-9.52,12.26-18.93,17.9-28.7,5.52-9.57,10.68-19.34,15.53-29.26,9.51-19.47,17.82-39.5,25.63-59.69,7.76-20.06,15.06-40.29,22.73-60.39,1.94-5.1,3.91-10.19,5.92-15.26s4.43-10.11,6.92-15.03c2.63-5.18,5.38-10.29,8.06-15.43s4.88-9.98,7.28-15.01,4.95-10.06,7.59-15c.62-1.15,1.24-2.3,1.87-3.45.71-1.29,1.67-2.18,2.71-3.22s1.6-2.19,2.29-3.45,1.44-2.58,2.18-3.86c5.51-9.53,11.81-18.56,18.04-27.63,3.28-4.77,6.58-9.54,9.68-14.43,1.29-2.03,1.92-4.33,3.05-6.44.61-1.14,1.52-1.95,2.43-2.86,1.11-1.11,1.86-2.29,2.66-3.63,2.9-4.89,5.73-9.82,8.44-14.82s5.02-9.85,7.81-14.62c2.56-4.38,4.84-8.99,5.73-14.03.39-2.23-1.63-3.77-3.67-2.82-12.8,5.95-24.05,14.93-37.4,19.75-1.27.46-2.12,1.7-1.75,3.08.34,1.23,1.8,2.21,3.08,1.75,13.79-4.98,25.38-14.11,38.6-20.25l-3.67-2.82c-.89,5.09-3.26,9.55-5.87,13.94-2.76,4.64-5.02,9.6-7.61,14.34-2.74,5.01-5.58,9.95-8.5,14.85-.65,1.09-1.48,1.88-2.38,2.77-1.09,1.09-1.91,2.2-2.58,3.6-1.03,2.16-1.77,4.3-3.08,6.32-6.09,9.38-12.62,18.46-18.79,27.78-3.01,4.54-5.92,9.14-8.65,13.86-1.32,2.28-2.37,4.9-4.23,6.77-1.07,1.07-1.98,2.03-2.72,3.37-.67,1.21-1.33,2.43-1.98,3.65-5.2,9.71-9.56,19.82-14.65,29.58s-10.9,20.03-15.13,30.59c-7.94,19.84-15.18,39.96-22.69,59.97-7.46,19.85-15.15,39.63-23.85,58.98-8.99,20-19.07,39.53-30.66,58.15-2.91,4.67-5.97,9.24-8.92,13.88s-5.78,8.95-8.9,13.3c-5.42,7.57-10.03,15.75-16.07,22.86-3.01,3.54-6.39,7.06-10.24,9.69-2.26,1.54-4.72-.15-6.86-1.12-2.52-1.14-5.04-2.29-7.56-3.45-10.2-4.68-20.37-9.44-30.48-14.31-20.37-9.82-40.52-20.09-60.32-31.01-9.85-5.43-19.49-11.23-29.39-16.56-9.06-4.88-18.25-9.6-26.76-15.41-4.21-2.88-8.22-6.02-11.96-9.49l-1.77,4.27c4.12,0,8.34-.25,12.45.14,4.42.41,8.85.79,13.28,1.14,8.69.67,17.39,1.19,26.1,1.53,17.58.68,35.19.61,52.75-.47,8.94-.55,17.87-1.36,26.76-2.46,2.28-.28,4.57-.52,6.83-.9,1.75-.29,3.59-1.16,5.12-2.03,3.53-2.02,5.64-5.53,8.06-8.69,5.04-6.57,9.79-13.24,14.19-20.26s8.98-14.6,13.28-22.01,8.34-14.58,12.41-21.93c2.04-3.68,4.06-7.38,6.08-11.07s3.94-7.61,5.74-11.53c6.83-14.87,13.79-29.7,21.8-43.98,2.05-3.65,4.16-7.26,6.34-10.83,2.14-3.51,4.85-6.9,6.17-10.82.6-1.79,1.55-3.26,2.56-4.85,1.12-1.77,2.26-3.52,3.41-5.27,2.3-3.5,4.66-6.97,7.07-10.41,9.36-13.37,19.44-26.2,29.72-38.87,1.32-1.63,2.65-3.26,3.97-4.88,1.14-1.4,2.19-3.05,3.7-4.07,1.59-1.08,2.92-2.14,4.2-3.59,1.36-1.55,2.73-3.08,4.11-4.61,5.5-6.1,11.14-12.07,16.93-17.89,11.4-11.46,23.4-22.32,35.99-32.47,3.05-2.46,6.14-4.88,9.26-7.25,1.07-.82,1.64-2.15.9-3.42-.62-1.06-2.34-1.72-3.42-.9Z"/>
  </g>
</svg>