<?xml version="1.0" encoding="UTF-8"?>
<svg id="Layer_1" data-name="Layer 1" xmlns="http://www.w3.org/2000/svg" viewBox="0 0 421.84 417.17">
  <defs>
    <style>
      .cls-1, .cls-2 {
        fill: #231f20;
      }

      .cls-3 {
        fill: #fff;
        stroke: #fff;
      }

      .cls-3, .cls-2 {
        stroke-miterlimit: 10;
      }

      .cls-4 {
        fill: #ed1c24;
      }

      .cls-2 {
        stroke: #231f20;
      }
    </style>
  </defs>
  <rect class="cls-2" x="9.36" y="8.88" width="411.98" height="407.78"/>
  <rect class="cls-3" x=".98" y=".5" width="411.98" height="407.78"/>
  <g>
    <path class="cls-1" d="M237.61,161.22c23-34,45-66,71-99,4-4,8-7,12-10,8-4,19-6,25,3,4,6,7,13,5,20-15,57-53,101-94,142-14,15,6,28,14,41,4,5,7,8,11,13,12,13,24,25,36,38,1,1,4,1,5,2,15,14,30,26,45,40,8,7,9,21,0,27-13,8-30,6-43-3-1-1-3,0-4-1-10-8-19-13-29-21-33-29-62-58-92-90-3-3-6,0-9,2-13,10-22,20-35,29-1,1-3,1-4,1-7,6-15,10-23,14l-3,3c-14,6-27,12-42,16-14,3-28,6-42,8-11,1-22,2-32-5-4-3-4-9-3-13,5-11,17-18,29-19,1,0,2-2,3-2,9-2,17-7,24-13,8-1,13-8,20-13,13-9,23-19,35-30,15-13,30-23,44-36,2-3,5-5,5-9-1-4-3-8-6-12-2-2-3-4-5-7-9-10-19-19-26-31-18-32-36-60-54-92-1-1-1-3-1-4-3-7-14-18-6-25,5-3,11-1,15,2,16,14,31,28,46,43,37,33,73,65,112,94"/>
    <path class="cls-1" d="M239.77,162.48c10.92-16.14,21.89-32.25,33.16-48.15,11.33-16.01,22.96-31.81,35.04-47.26,1.53-1.96,3.04-3.76,4.89-5.43s3.59-3.11,5.47-4.56c1.59-1.24,3.13-2.54,4.98-3.37,1.41-.63,2.91-1.15,4.42-1.56,2.95-.8,6.12-1.15,9.02-.42,3.21.81,5.53,2.87,7.32,5.68,2.3,3.61,4.37,7.7,4.65,12.05s-1.39,8.51-2.61,12.52c-2.44,8.04-5.37,15.94-8.76,23.62-6.74,15.25-15.19,29.71-24.73,43.37s-20.32,26.7-31.58,39.14c-5.7,6.3-11.55,12.47-17.49,18.55-2.97,3.04-6.1,5.96-8.97,9.09-2.44,2.68-4.47,5.95-5.06,9.58-1.08,6.73,2.28,12.83,6.22,18.02,2.2,2.9,4.57,5.64,6.91,8.43,2.16,2.57,4.03,5.26,6.01,7.96,2.64,3.6,5.82,6.83,8.7,10.23,3.24,3.82,6.62,7.48,10.06,11.11,6.86,7.25,13.83,14.4,20.69,21.65,1.8,1.9,3.6,3.81,5.38,5.73,1.5,1.61,2.71,3.21,4.88,3.89.75.24,1.54.44,2.3.62.29.07.14,0,.35.19.56.48,1.09,1.01,1.63,1.51,1.8,1.66,3.62,3.31,5.44,4.95,7.42,6.65,15,13.12,22.5,19.67,3.78,3.3,7.54,6.63,11.25,10.01,2.82,2.57,5.88,4.96,7.69,8.37,2.67,5.02,2.88,11.9-.88,16.29-2.29,2.68-5.81,4.17-9.12,5.22-3.73,1.18-7.59,1.65-11.49,1.52s-7.89-.94-11.65-2.24c-1.82-.63-3.59-1.39-5.3-2.27-1.91-.98-3.63-2.21-5.46-3.32-.82-.5-1.77-.62-2.71-.65-.21,0-.89,0-.9,0,.11,0,.94.73-.05-.07-.25-.21-.52-.41-.78-.61-1.98-1.55-3.99-3.06-6.03-4.53-3.79-2.73-7.68-5.33-11.52-7.99s-7.94-5.49-11.54-8.67-7.32-6.49-10.94-9.78c-14.15-12.82-27.96-26-41.48-39.49-6.78-6.77-13.49-13.6-20.14-20.5-3.36-3.49-6.71-6.99-10.05-10.51-1.68-1.77-3.36-3.55-5.04-5.33s-3.26-4.05-5.58-4.92c-2.14-.8-4.37-.14-6.25.99-2.02,1.2-3.9,2.7-5.73,4.16-3.78,3-7.43,6.15-11.04,9.35s-6.88,6.15-10.4,9.13-7.33,5.83-11.12,8.62c-.52.38-.87.56-1.53.62-1.25.12-2.1.05-3.15.92-1.78,1.46-3.58,2.84-5.49,4.12-3.85,2.58-7.92,4.81-12.04,6.92-2.02,1.03-4.35,1.86-5.96,3.47-.75.75-1.51,1.79-2.48,2.22-1.21.54-2.44,1.05-3.65,1.58-4.24,1.83-8.48,3.68-12.76,5.44-8.93,3.67-18.06,7.11-27.52,9.14-10.06,2.15-20.13,4.27-30.28,5.98-4.64.78-9.24,1.44-13.93,1.75-4.14.28-8.39.41-12.5-.28s-8.42-2.13-11.87-4.66c-2.49-1.82-2.8-5.25-2.56-8.08.06-.66.12-1.31.34-2.04s.76-1.58,1.18-2.29c.89-1.51,1.91-2.91,3.08-4.21,2.51-2.79,5.49-5.06,8.79-6.84s6.91-3.01,10.61-3.69c1.81-.33,3.87-.15,5.37-1.34.36-.28.69-.58,1-.91.17-.17.48-.41.08-.22.89-.41,2.13-.49,3.09-.78,8.32-2.49,15.67-7.3,22.23-12.89l-1.1.64c8.12-1.12,13.48-7.83,19.63-12.54,3.7-2.83,7.54-5.45,11.17-8.39s6.94-5.83,10.31-8.87c7.11-6.43,13.95-13.13,21.37-19.21,7.55-6.18,15.35-12.03,22.97-18.12,3.78-3.02,7.51-6.11,11.14-9.32.83-.73,1.65-1.47,2.47-2.22s1.44-1.54,2.12-2.4c1.19-1.5,2.59-2.91,3.47-4.63.99-1.91,1.49-4.07.89-6.17-.65-2.28-1.59-4.5-2.7-6.6-2.05-3.84-5-7-7.33-10.66s-5.82-6.84-8.86-10.05-6.1-6.45-8.98-9.82-5.55-6.86-7.91-10.6c-2.66-4.23-4.99-8.68-7.49-13.01-9.89-17.13-20.19-34-30.3-51-5.12-8.61-10.2-17.26-15.15-25.97-.61-1.08-1.22-2.16-1.83-3.24-.49-.87-.98-1.31-1.11-2.27-.07-.55.05-1.37-.13-2-.22-.8-.72-1.62-1.11-2.35-1.54-2.85-3.41-5.5-5-8.32-1.41-2.5-2.76-5.28-2.66-7.93.04-.98.41-2.12,1.2-3.06,1.07-1.27,2.9-1.65,4.5-1.67,4.18-.04,7.43,2.35,10.42,4.98,3.71,3.27,7.4,6.56,11.06,9.89,7.27,6.6,14.43,13.31,21.48,20.14,3.56,3.44,7.04,6.95,10.58,10.41s7.44,6.68,11.16,9.98c14.76,13.13,29.57,26.21,44.61,39.01,14.96,12.73,30.15,25.18,45.72,37.15,3.76,2.89,7.54,5.75,11.35,8.59,1.08.81,2.79.18,3.42-.9.75-1.27.19-2.61-.9-3.42-14.4-10.72-28.46-21.89-42.27-33.36s-27.58-23.38-41.15-35.33c-6.85-6.03-13.68-12.1-20.49-18.17-3.43-3.05-6.88-6.07-10.14-9.3s-6.47-6.37-9.74-9.52c-6.5-6.26-13.09-12.43-19.76-18.5-3.36-3.05-6.74-6.09-10.15-9.09-3.19-2.82-6.18-5.5-10.32-6.8-3.71-1.16-8.52-1.16-11.76,1.27-2.51,1.88-3.91,5.15-3.84,8.25.14,6.18,4.39,11.53,7.42,16.61.65,1.09,1.27,2.2,1.78,3.37l-.34-1.26c0,1.92.27,3.67,1.34,5.29,1.35,2.04,2.45,4.31,3.67,6.44,2.46,4.3,4.95,8.59,7.45,12.86,4.95,8.45,9.99,16.85,15.03,25.25s10.06,16.77,15.03,25.19c2.5,4.25,4.99,8.51,7.45,12.79s4.75,8.69,7.47,12.81c4.9,7.46,11.01,14,17.13,20.45,2.97,3.13,6.13,6.12,8.45,9.77,1.07,1.68,2.25,3.21,3.54,4.72,1.51,1.78,2.72,3.99,3.74,6.08.41.85.77,1.71,1.08,2.6.28.81.72,1.71.57,2.57-.27,1.57-1.37,2.84-2.36,4.02-.63.75-1.2,1.55-1.83,2.3-.72.85-1.65,1.58-2.48,2.33-1.75,1.57-3.53,3.12-5.33,4.64-7.34,6.19-15,11.98-22.55,17.92-3.92,3.08-7.8,6.2-11.6,9.43s-7.04,6.37-10.52,9.6c-6.58,6.11-13.21,12.2-20.36,17.65-3.52,2.68-7.19,5.11-10.55,8.01-2.88,2.48-5.64,5.17-8.99,7.03-1.56.87-3.22,1.47-5,1.76-1.25.2-2.02,1.04-2.96,1.82-.82.68-1.66,1.34-2.51,1.98-3.46,2.58-7.14,4.86-11.08,6.64-1.92.87-3.92,1.57-5.95,2.13-1.76.49-3.74.72-4.88,2.37-.22.32-.21.19.11.09-.38.13-.88.09-1.29.14-1.08.14-2.16.3-3.23.51-1.89.38-3.75.9-5.56,1.55-7.41,2.68-14.07,7.41-18.48,13.99-1.03,1.53-2.23,3.34-2.62,5.16-.35,1.64-.55,3.35-.51,5.02.1,3.68,1.3,7.49,4.28,9.85,6.97,5.52,16.42,6.72,25.01,6.38,9.67-.38,19.22-2.19,28.71-4.03,9.88-1.91,19.93-3.66,29.54-6.7,9.07-2.87,17.85-6.53,26.58-10.29,2.2-.95,4.4-1.9,6.61-2.85,1.01-.44,2.26-.77,3.09-1.5.93-.82,1.68-1.92,2.67-2.67.81-.61,1.92-.99,2.83-1.45,1.06-.54,2.13-1.08,3.18-1.63,2.05-1.07,4.08-2.17,6.08-3.34,3.96-2.32,7.74-4.94,11.24-7.92l-1.77.73c1.32,0,2.67-.09,3.9-.57,1.74-.68,3.32-2.14,4.81-3.25,3.09-2.3,6.09-4.71,9.02-7.21,5.61-4.78,11.01-9.81,16.65-14.56,2.88-2.42,5.78-4.94,8.99-6.9,1.06-.65,1.86-1.14,2.86-.24,1.51,1.36,2.84,3.02,4.23,4.5,5.26,5.58,10.56,11.13,15.89,16.64,21.31,22.03,43.29,43.42,66.18,63.81,3.03,2.7,6.05,5.38,9.29,7.84,2.94,2.23,5.96,4.35,9.01,6.45s6.22,4.24,9.28,6.42c1.53,1.09,3.04,2.2,4.54,3.33s2.92,2.76,4.74,3.12c.74.14,1.5.14,2.25.14-.14,0-1.16-.77.1.15.22.16.45.31.68.46,1.46.98,2.98,1.87,4.55,2.67,3.03,1.56,6.24,2.83,9.54,3.71,6.32,1.69,13,2,19.41.66,5.97-1.24,12.42-3.9,15.98-9.08,3.04-4.43,3.59-10.23,2.37-15.36-.63-2.63-1.77-5.23-3.35-7.43-1.98-2.77-4.64-4.96-7.14-7.24-5.84-5.33-11.81-10.51-17.78-15.69-6.09-5.28-12.18-10.55-18.15-15.96-1.34-1.21-2.67-2.43-3.99-3.66s-2.45-2.06-4.22-2.54c-.61-.16-1.23-.36-1.84-.5.27.06-.4-.29-.03.02-.36-.31-.68-.74-1.01-1.09-1.45-1.57-2.91-3.13-4.37-4.68-5.45-5.79-10.98-11.52-16.49-17.26s-11.26-11.64-16.48-17.83c-2.17-2.56-4.42-5.05-6.58-7.62-1.93-2.3-3.53-4.84-5.39-7.21-3.42-4.37-7.31-8.38-10.47-12.95-1.34-1.94-2.67-4.12-3.42-6.2s-1.13-4.28-.78-6.25c.45-2.57,1.73-4.82,3.45-6.79,2.16-2.47,4.63-4.7,6.93-7.04,18.96-19.29,37.17-39.47,52.62-61.72,15.38-22.15,27.79-46.47,34.99-72.52.95-3.44,1.65-6.75,1.19-10.33-.49-3.76-1.88-7.31-3.71-10.62-1.64-2.97-3.52-5.8-6.27-7.86-2.3-1.72-5.02-2.65-7.85-3.01-5.43-.68-10.96.96-15.82,3.29-1.48.71-2.79,1.95-4.09,2.95-1.61,1.24-3.2,2.49-4.74,3.81-1.44,1.23-2.97,2.49-4.24,3.91s-2.42,3.09-3.62,4.62c-19.22,24.68-37.31,50.21-54.96,76.03-4.29,6.28-8.56,12.57-12.82,18.86-1.81,2.67,2.52,5.18,4.32,2.52h0Z"/>
  </g>
  <g>
    <path class="cls-4" d="M233.61,145.22c24-34,46-67,73-101,7-9,18-14,29-9,8,4,13,14,10,24-9,39-30,71-55,102-5,5-9,10-13,15-8,9-16,17-25,25-6,6-7,16,0,22,2,2,3,4,5,7,5,5,9,10,14,15,1,1,1,3,2,4,27,31,55,57,88,83,7,6,11,15,6,24-7,11-21,12-33,10-1,0-2-2-3-2-12-3-22-11-33-19-38-30-69-63-103-98-3-3-7,0-9,1-30,27-62,50-101,61-1,0-2,2-3,2-12,4-23,5-35,7-8,1-17,0-25,2-3,1-7-1-10-1-7-2-11-10-10-17,1-5,4-9,8-12,16-8,34-10,49-21,36-26,65-52,98-80,5-5,6-12,1-18-12-14-24-26-33-41-22-37-41-72-64-109-2-3-2-6-1-8,2-3,6-6,10-5,11,3,18,11,25,19,1,1,3,1,4,2,2,2,4,4,6,7,1,1,3,1,4,2,8,7,14,14,22,21,12,10,22,20,35,29,1,1,2,3,3,4,21,17,40,33,61,51,2,1,5,3,7,5"/>
    <path class="cls-4" d="M235.77,146.48c16.83-23.84,33.23-47.99,50.51-71.5,4.4-5.98,8.85-11.92,13.36-17.81,2.27-2.96,4.57-5.91,6.88-8.84,2-2.54,3.97-5.06,6.44-7.17,4.17-3.55,9.5-5.73,15.02-5.39s10.26,3.18,13.15,7.76c1.39,2.2,2.34,4.67,2.7,7.25.42,2.99-.15,5.72-.84,8.61-1.5,6.35-3.34,12.61-5.5,18.77-4.21,11.99-9.66,23.5-15.97,34.52-6.38,11.16-13.61,21.82-21.3,32.12-1.91,2.56-3.84,5.09-5.81,7.61s-3.98,5.39-6.28,7.74c-4.97,5.06-9.13,10.79-13.87,16.04s-9.57,10.26-14.63,15.12c-2.55,2.45-5.14,4.85-7.77,7.21-2.21,1.98-3.98,4.27-5.15,7.02-2.13,5.01-2.07,10.89.83,15.6,1.49,2.43,3.8,4.11,5.38,6.47.85,1.28,1.6,2.63,2.5,3.88,1.14,1.58,2.74,2.91,4.07,4.34,2.45,2.66,4.83,5.38,7.3,8.02.97,1.04,2.55,2.22,3.16,3.39.68,1.3.88,2.58,1.87,3.75,4.43,5.25,9.12,10.3,13.8,15.32,9.2,9.87,18.74,19.43,28.59,28.65,9.93,9.31,20.18,18.28,30.67,26.96,2.68,2.22,5.39,4.43,8.1,6.61s5.55,4.15,8.03,6.52c3.94,3.76,6.97,9.03,6.22,14.66-1.51,11.33-14.32,14.99-24.01,14.82-2.56-.04-5.1-.29-7.62-.68-.11-.02-.75-.26-.38-.04.31.19-.39-.41-.35-.37-.42-.41-.86-.85-1.36-1.15-1.3-.78-3.06-.96-4.5-1.44-6.22-2.07-11.88-5.53-17.26-9.22-11.62-7.97-22.47-16.97-33.07-26.24-10.55-9.22-20.79-18.81-30.82-28.6-10.06-9.82-19.92-19.86-29.72-29.94-4.96-5.1-9.91-10.22-14.87-15.34-1.2-1.24-2.4-2.47-3.6-3.71s-2.44-2.83-4.05-3.66c-2.85-1.47-5.96-.44-8.59.97s-4.71,3.58-6.95,5.54c-2.43,2.14-4.89,4.25-7.36,6.34-4.86,4.09-9.81,8.09-14.88,11.92-10.15,7.67-20.75,14.75-31.9,20.88s-22.79,11.28-34.9,15.15c-1.48.47-2.97.93-4.46,1.37-1.57.46-2.81.74-4.03,1.9-.22.2-.41.44-.64.63.06-.05.51-.26.03-.06-.75.31-1.58.51-2.36.75-1.84.56-3.7,1.07-5.57,1.53-6.91,1.7-13.96,2.7-20.99,3.76-3.41.52-6.78,1.09-10.23,1.26s-6.95.16-10.41.33-7.02.52-10.43,1.36c-2.71.67-5.6-.72-8.3-1.02-4.64-.51-7.66-5.75-8.47-9.9-1.04-5.33,1.79-10.27,5.71-13.69,2.22-1.94,5.54-2.96,8.27-4.03,2.99-1.17,6.02-2.22,9.06-3.24,6.22-2.09,12.47-4.1,18.52-6.68,2.98-1.27,5.9-2.68,8.7-4.31,3-1.74,5.77-3.78,8.57-5.82,5.92-4.32,11.76-8.73,17.55-13.22,22.16-17.14,43.36-35.45,64.64-53.66,2.71-2.32,5.43-4.64,8.15-6.96s5.48-4.31,7.44-7.22c3.59-5.35,3.33-12.23-.47-17.39-2.15-2.92-4.73-5.58-7.13-8.29s-4.68-5.26-7-7.91c-4.49-5.12-8.92-10.31-12.95-15.8-4.24-5.78-7.83-11.96-11.46-18.13s-7.47-12.79-11.18-19.2c-7.31-12.66-14.56-25.35-21.9-37.99-7.5-12.92-15.1-25.78-22.93-38.5-1-1.62-2.01-3.24-3.01-4.86-.77-1.26-1.36-2.52-1.31-4.03.07-2.32,2.78-4.42,4.89-5.11,2.62-.86,5.68.7,8.01,1.85,2.57,1.27,4.98,2.87,7.19,4.7s4.37,3.97,6.38,6.12c.97,1.04,1.92,2.1,2.86,3.16,1.01,1.14,1.94,2.53,3.32,3.25.99.52,2.23.68,3.01,1.36,1.18,1.04,2.26,2.28,3.27,3.48s1.85,2.92,3.19,3.84c.98.67,2.36.85,3.27,1.41.65.4,1.28,1.13,1.84,1.64.72.65,1.42,1.31,2.13,1.97,1.37,1.29,2.73,2.61,4.07,3.94,2.54,2.51,5.04,5.06,7.6,7.55,5.17,5.04,10.76,9.6,16.18,14.37s10.41,9.21,15.83,13.54c2.83,2.27,5.72,4.47,8.69,6.56,1.11.79,1.63,1.76,2.42,2.87,1.09,1.52,2.45,2.54,3.89,3.71,11.3,9.18,22.51,18.46,33.64,27.84,5.38,4.53,10.74,9.08,16.09,13.64,2.75,2.35,5.47,4.73,8.25,7.05,1.13.94,2.48,1.56,3.7,2.38,1.32.87,2.54,1.84,3.67,2.95,2.3,2.25,5.84-1.28,3.54-3.54-1.23-1.21-2.59-2.28-4.01-3.27-1.21-.85-2.61-1.47-3.75-2.38-2.95-2.34-5.74-4.91-8.61-7.36-5.7-4.86-11.42-9.71-17.16-14.53-5.66-4.76-11.33-9.49-17.03-14.19-2.81-2.32-5.63-4.64-8.45-6.95-1.43-1.17-2.85-2.33-4.28-3.5-1.55-1.26-3.29-2.43-4.71-3.82-.94-.92-1.54-2.2-2.36-3.24-1.1-1.39-2.82-2.31-4.24-3.35-2.87-2.1-5.67-4.3-8.41-6.56-5.42-4.47-10.63-9.18-15.92-13.8-5.59-4.88-11.17-9.67-16.43-14.91-2.65-2.64-5.27-5.3-7.98-7.88-1.29-1.22-2.59-2.43-3.92-3.61-.55-.49-1.1-1.03-1.73-1.42-.76-.46-1.62-.67-2.43-.99-.24-.1-.38-.11-.6-.27.52.38-.4-.65-.41-.65-.48-.65-.97-1.3-1.48-1.92-1.02-1.26-2.13-2.44-3.27-3.59s-2.31-1.91-3.92-2.46c-1.23-.42-1.81-1.41-2.69-2.4-4.05-4.59-8.28-9.05-13.36-12.51-2.55-1.74-5.31-3.15-8.21-4.22-1.48-.55-3.01-1.07-4.59-1.15-1.78-.09-3.51.4-5.1,1.15-2.76,1.31-5.76,4-6.55,7.05-.91,3.49.4,6.67,2.22,9.59,15.87,25.57,30.72,51.75,45.75,77.81,3.73,6.47,7.48,12.94,11.25,19.38s7.36,12.82,11.63,18.84c8.3,11.7,18.27,22.06,27.61,32.9,1.87,2.17,3.23,4.68,3.17,7.61-.05,2.73-1.37,5.37-3.27,7.29-2.49,2.52-5.46,4.69-8.16,7s-5.41,4.62-8.11,6.94c-10.82,9.27-21.64,18.56-32.59,27.69s-22.16,18.2-33.57,26.89c-5.75,4.38-11.49,8.88-17.5,12.89-5.47,3.64-11.48,6.31-17.63,8.55s-12.44,4.13-18.59,6.41c-3.15,1.17-6.27,2.44-9.31,3.89-2.86,1.36-5.18,3.79-7.03,6.34-3.55,4.88-4.65,11.01-2.68,16.74.9,2.63,2.31,5.08,4.25,7.07s4.76,3.95,7.56,4.16c2.95.22,5.79,1.53,8.8,1.23,1.6-.16,3.15-.68,4.74-.94,1.71-.28,3.43-.41,5.16-.51,3.62-.21,7.25-.2,10.88-.36s7.08-.71,10.61-1.25c7.18-1.1,14.39-2.08,21.47-3.75,1.71-.4,3.4-.85,5.09-1.33s3.55-.8,5-1.66c.5-.3,1.23-.87,1.58-1.37.14-.21.31-.29-.03-.12.27-.14.73-.18,1.03-.26,1.63-.47,3.26-.96,4.88-1.47,24.86-7.89,47.65-21,68.39-36.67,5.3-4,10.49-8.16,15.57-12.43,2.48-2.08,4.93-4.2,7.37-6.33,1.22-1.07,2.44-2.15,3.65-3.23,1-.89,1.98-1.51,3.18-2.11.76-.38,1.75-.86,2.59-.75,1.35.18,2.54,2.04,3.42,2.95,2.55,2.63,5.11,5.27,7.66,7.9,4.99,5.15,9.97,10.3,14.98,15.42,19.93,20.42,40.21,40.53,61.93,59.05,5.45,4.64,10.92,9.33,16.64,13.64s11.38,8.51,17.43,12.18c3,1.82,6.11,3.43,9.34,4.78,1.43.6,2.89,1.14,4.37,1.6.67.21,1.35.42,2.04.58.07.02.84.34.46.09-.14-.09.46.49.57.59,2.06,1.95,5.16,1.9,7.85,2.13s5.57.3,8.35.07c5.43-.45,10.96-1.86,15.46-5.05,5.07-3.6,8.58-8.83,9.09-15.12s-2.59-12.4-6.88-16.86c-2.44-2.54-5.42-4.59-8.16-6.79s-5.43-4.39-8.12-6.61c-21.25-17.55-41.47-36.34-60.25-56.52-2.43-2.61-4.84-5.25-7.23-7.91-1.1-1.23-2.2-2.46-3.29-3.69-.97-1.1-2.5-2.41-3.12-3.65s-.77-2.46-1.67-3.52c-1.3-1.54-2.83-2.93-4.2-4.41-2.45-2.66-4.83-5.39-7.3-8.02-1.18-1.25-2.39-2.38-3.31-3.83-.82-1.29-1.62-2.58-2.54-3.8-1.73-2.27-4.08-3.91-5.19-6.63-1.75-4.31-.57-9.44,2.41-12.99.99-1.18,2.22-2.15,3.36-3.19,1.37-1.24,2.72-2.49,4.06-3.75,2.54-2.39,5.05-4.83,7.5-7.32,5.05-5.1,9.84-10.37,14.37-15.93,2.34-2.86,4.73-5.68,7.26-8.37,1.17-1.25,2.37-2.44,3.44-3.78s2.14-2.68,3.2-4.02c4.16-5.28,8.23-10.64,12.16-16.1,15.24-21.2,28.22-44.19,35.89-69.25.98-3.2,1.87-6.42,2.67-9.66s1.66-6.29,1.62-9.57c-.07-5.99-2.54-11.91-6.8-16.13-4.4-4.35-10.65-6.53-16.81-6.13s-11.67,3.12-16.23,7.1c-2.59,2.27-4.65,5-6.77,7.69-2.37,3.01-4.71,6.03-7.04,9.07-4.62,6.01-9.16,12.08-13.65,18.19-8.78,11.95-17.33,24.07-25.83,36.22s-16.22,23.3-24.4,34.9c-.78,1.1-.2,2.78.9,3.42,1.25.73,2.64.21,3.42-.9h0Z"/>
  </g>
</svg>